<svg width="0" height="0">
  <symbol fill="none" xmlns="http://www.w3.org/2000/svg" viewBox="0 0 18 18" id="check-round">
    <g clip-path="url(#clip0_267_3130)">
      <path d="M16.5 8.31429V9.00429C16.4991 10.6216 15.9754 12.1953 15.007 13.4907C14.0386 14.786 12.6775 15.7337 11.1265 16.1922C9.57557 16.6508 7.91794 16.5957 6.40085 16.0352C4.88376 15.4747 3.58849 14.4389 2.70822 13.0821C1.82795 11.7253 1.40984 10.1203 1.51626 8.50653C1.62267 6.89272 2.24791 5.35654 3.29871 4.1271C4.34951 2.89766 5.76959 2.04083 7.34714 1.6844C8.92469 1.32798 10.5752 1.49105 12.0525 2.14929M16.5 3L9 10.5075L6.75 8.2575" stroke="#11813A" stroke-width="2" stroke-linecap="round" stroke-linejoin="round"></path>
    </g>
    <defs>
      <clipPath id="clip0_267_3130">
        <rect width="18" height="18" fill="white"></rect>
      </clipPath>
    </defs>
  </symbol>
  <symbol fill="none" xmlns="http://www.w3.org/2000/svg" viewBox="0 0 18 18" id="refresh">
    <path d="M6.41099 14.8256C8.21035 15.6238 10.3534 15.5805 12.1887 14.5209C15.2378 12.7605 16.2825 8.86161 14.5221 5.8125L14.3346 5.48774M3.47992 12.1876C1.71951 9.13847 2.76421 5.23958 5.81333 3.47918C7.64857 2.4196 9.79166 2.37624 11.591 3.17452M1.87109 12.2503L3.92013 12.7994L4.46917 10.7503M13.533 7.24936L14.0821 5.20032L16.1311 5.74936" stroke="#11813A" stroke-width="2" stroke-linecap="round" stroke-linejoin="round"></path>
  </symbol>
  <symbol fill="none" xmlns="http://www.w3.org/2000/svg" viewBox="0 0 22 18" id="mail">
    <path d="M20.5 15L13.8571 9M8.14286 9L1.50003 15M1 4L9.16492 9.71544C9.82609 10.1783 10.1567 10.4097 10.5163 10.4993C10.8339 10.5785 11.1661 10.5785 11.4837 10.4993C11.8433 10.4097 12.1739 10.1783 12.8351 9.71544L21 4M5.8 17H16.2C17.8802 17 18.7202 17 19.362 16.673C19.9265 16.3854 20.3854 15.9265 20.673 15.362C21 14.7202 21 13.8802 21 12.2V5.8C21 4.11984 21 3.27976 20.673 2.63803C20.3854 2.07354 19.9265 1.6146 19.362 1.32698C18.7202 1 17.8802 1 16.2 1H5.8C4.11984 1 3.27976 1 2.63803 1.32698C2.07354 1.6146 1.6146 2.07354 1.32698 2.63803C1 3.27976 1 4.11984 1 5.8V12.2C1 13.8802 1 14.7202 1.32698 15.362C1.6146 15.9265 2.07354 16.3854 2.63803 16.673C3.27976 17 4.11984 17 5.8 17Z" stroke="white" stroke-width="2" stroke-linecap="round" stroke-linejoin="round"></path>
  </symbol>
  <symbol fill="none" xmlns="http://www.w3.org/2000/svg" viewBox="0 0 20 17" id="tg">
    <path d="M1.22617 7.40354C1.22617 7.40354 10.0717 3.67172 13.1395 2.35766C14.3155 1.83208 18.3036 0.150066 18.3036 0.150066C18.3036 0.150066 20.1443 -0.585749 19.9909 1.2013C19.9398 1.93719 19.5307 4.51265 19.1217 7.29842C18.5081 11.2405 17.8434 15.5505 17.8434 15.5505C17.8434 15.5505 17.7412 16.7595 16.872 16.9697C16.0028 17.18 14.5711 16.2339 14.3155 16.0236C14.1109 15.866 10.4807 13.5007 9.15133 12.3443C8.7934 12.029 8.38439 11.3983 9.20242 10.6624C11.0431 8.92784 13.2417 6.77284 14.5711 5.40625C15.1847 4.77548 15.7982 3.30378 13.2417 5.09083C9.61151 7.66637 6.0324 10.0842 6.0324 10.0842C6.0324 10.0842 5.21429 10.6098 3.68041 10.1367C2.14645 9.66373 0.356899 9.03295 0.356899 9.03295C0.356899 9.03295 -0.870153 8.24454 1.22617 7.40354Z" fill="white"></path>
  </symbol>
  <symbol fill="none" xmlns="http://www.w3.org/2000/svg" viewBox="0 0 18 18" id="settings">
    <g clip-path="url(#clip0_267_3136)">
      <path d="M14.7168 7.79655L13.8935 5.8086L15 4.5L13.5 3L12.1985 4.11222L10.1683 3.2773L9.7015 1.5H8.23573L7.76181 3.30084L5.77831 4.13697L4.5 3L3 4.5L4.09003 5.84164L3.27938 7.83475L1.5 8.25V9.75L3.30084 10.2416L4.13681 12.2248L3 13.5L4.5 15L5.84337 13.9052L7.79776 14.7092L8.25 16.5H9.75L10.2034 14.7099L12.1913 13.8867C12.5227 14.1235 13.5 15 13.5 15L15 13.5L13.8869 12.1871L14.7104 10.1985L16.4999 9.73289L16.5 8.25L14.7168 7.79655Z" fill="#2E6CE6" stroke="#2E6CE6" stroke-width="2" stroke-linecap="round" stroke-linejoin="round"></path>
      <path d="M9 11.25C10.2426 11.25 11.25 10.2426 11.25 9C11.25 7.75736 10.2426 6.75 9 6.75C7.75736 6.75 6.75 7.75736 6.75 9C6.75 10.2426 7.75736 11.25 9 11.25Z" fill="#FEFAEF" stroke="#FEFAEF" stroke-width="2" stroke-linecap="round" stroke-linejoin="round"></path>
    </g>
    <defs>
      <clipPath id="clip0_267_3136">
        <rect width="18" height="18" fill="white"></rect>
      </clipPath>
    </defs>
  </symbol>
</svg>
