<svg width="1539" height="161" viewBox="0 0 1539 161" fill="none" xmlns="http://www.w3.org/2000/svg">
<path d="M18.875 38.3125H76.8125V71.4375C83.0625 71.4375 90.2708 74.0417 98.4375 79.25C108.854 86.9583 114.062 99.0625 114.062 115.562V128H18.875V82.9375H0V71.4375H18.875V38.3125ZM30.375 49.8125V71.4375H65.3125V49.8125H30.375ZM30.375 82.9375V116.5H102.562V115.562C102.562 100.271 96.8958 90.1667 85.5625 85.25C81.5208 83.7083 77.0625 82.9375 72.1875 82.9375H30.375ZM125 38.5H198.875C217.833 38.5 230.688 48.2917 237.438 67.875C238.062 70.9167 238.375 73.6667 238.375 76.125V83H136.5V88.0625C136.5 102.021 143.688 111.354 158.062 116.062C160.146 116.354 161.812 116.5 163.062 116.5H238.375V128H162.625C148.333 128 137.021 120.667 128.688 106C126.229 100.542 125 94.7083 125 88.5V71.5625H226.438C221.729 57.1875 212.396 50 198.438 50H125V38.5ZM309.625 38.0625L331.375 128H320.062C319.229 128 316.542 117.438 312 96.3125C310.125 89.8958 306.333 74.4375 300.625 49.9375H280.75C269.417 97.4375 263.104 123.458 261.812 128H250L271.75 38.0625H309.625ZM340.625 38.5H414.5C433.458 38.5 446.312 48.2917 453.062 67.875C453.688 70.9167 454 73.6667 454 76.125V83H352.125V88.0625C352.125 102.021 359.312 111.354 373.688 116.062C375.771 116.354 377.438 116.5 378.688 116.5H454V128H378.25C363.958 128 352.646 120.667 344.312 106C341.854 100.542 340.625 94.7083 340.625 88.5V71.5625H442.062C437.354 57.1875 428.021 50 414.062 50H340.625V38.5ZM505.438 38.3125H579.562V49.75H507.25C492.5 49.75 482.896 56.4583 478.438 69.875C477.521 72.1667 477.062 75.5208 477.062 79.9375V86.8125C477.062 100.396 483.021 109.708 494.938 114.75C497.938 115.958 500.979 116.562 504.062 116.562H579.562V128H503.125C488.042 128 476.458 119.917 468.375 103.75C466.542 98.875 465.625 93.375 465.625 87.25V78.125C465.625 60.1667 474.625 47.5 492.625 40.125C497 38.9167 501.271 38.3125 505.438 38.3125Z" fill="url(#paint0_linear_601_4374)"/>
<path d="M595 78.625H654.688V89.25H595V78.625Z" fill="url(#paint1_linear_601_4374)"/>
<path d="M671 38.3125H748.312C761.438 38.3125 772.417 45.7917 781.25 60.75C783.417 66.25 784.5 71.2708 784.5 75.8125V128H773.062V77.6875C773.062 64.2292 765.875 55.0625 751.5 50.1875C749.417 49.8958 747.75 49.75 746.5 49.75H733.688V128H721.812V49.75H682.438V128H671V38.3125ZM796 38.5H869.875C888.833 38.5 901.688 48.2917 908.438 67.875C909.062 70.9167 909.375 73.6667 909.375 76.125V83H807.5V88.0625C807.5 102.021 814.688 111.354 829.062 116.062C831.146 116.354 832.812 116.5 834.062 116.5H909.375V128H833.625C819.333 128 808.021 120.667 799.688 106C797.229 100.542 796 94.7083 796 88.5V71.5625H897.438C892.729 57.1875 883.396 50 869.438 50H796V38.5ZM921 38.3125H923.75C940.167 38.3125 955.104 45.4792 968.562 59.8125L978.188 72.625C980.688 67.1667 986.333 60.3125 995.125 52.0625C1007 42.8958 1019.35 38.3125 1032.19 38.3125H1034.94V49.75H1033.56C1013.6 49.75 997.438 61.0417 985.062 83.625C991.229 93.0417 997.167 100.354 1002.88 105.562C1013.17 112.896 1023.85 116.562 1034.94 116.562V128H1034.5C1013.33 128 996.083 118.854 982.75 100.562C979.75 95.9792 978.083 93.6875 977.75 93.6875H977.25C963.75 116.562 945 128 921 128V116.562C941.417 116.562 958.042 105.271 970.875 82.6875C970.458 82.6875 967.104 77.9583 960.812 68.5C949.604 56 936.646 49.75 921.938 49.75H921V38.3125Z" fill="url(#paint2_linear_601_4374)"/>
<circle cx="1095" cy="88" r="25" fill="#FA6E32"/>
<path d="M1183.17 36.608C1195.03 36.608 1203.65 39.0827 1209.02 44.032C1214.49 48.9813 1217.22 55.808 1217.22 64.512C1217.22 68.4373 1216.62 72.192 1215.42 75.776C1214.23 79.2747 1212.22 82.432 1209.41 85.248C1206.59 88.064 1202.88 90.2827 1198.27 91.904C1193.75 93.5253 1188.12 94.336 1181.38 94.336H1172.29V128H1155.9V36.608H1183.17ZM1182.14 50.176H1172.29V80.768H1179.71C1184.15 80.768 1187.9 80.256 1190.98 79.232C1194.13 78.1227 1196.52 76.416 1198.14 74.112C1199.77 71.808 1200.58 68.8213 1200.58 65.152C1200.58 60.1173 1199.08 56.3627 1196.1 53.888C1193.11 51.4133 1188.46 50.176 1182.14 50.176ZM1284.43 35.328V46.592C1294.42 46.848 1302.31 48.5547 1308.11 51.712C1314 54.784 1318.18 58.88 1320.66 64C1323.22 69.0347 1324.5 74.5813 1324.5 80.64C1324.5 84.5653 1323.86 88.576 1322.58 92.672C1321.3 96.6827 1319.12 100.352 1316.05 103.68C1312.98 107.008 1308.88 109.739 1303.76 111.872C1298.64 113.92 1292.2 115.029 1284.43 115.2V129.28H1269.33V115.2C1261.48 115.029 1254.95 113.877 1249.75 111.744C1244.63 109.611 1240.57 106.88 1237.59 103.552C1234.6 100.139 1232.47 96.4267 1231.19 92.416C1229.91 88.4053 1229.27 84.48 1229.27 80.64C1229.27 76.2027 1229.95 71.9787 1231.31 67.968C1232.76 63.872 1235.03 60.288 1238.1 57.216C1241.26 54.0587 1245.39 51.5413 1250.51 49.664C1255.63 47.7867 1261.91 46.7627 1269.33 46.592V35.328H1284.43ZM1269.33 59.648C1263.27 59.904 1258.45 60.928 1254.87 62.72C1251.37 64.512 1248.85 66.944 1247.31 70.016C1245.78 73.0027 1245.01 76.5013 1245.01 80.512C1245.01 84.7787 1245.86 88.5333 1247.57 91.776C1249.28 94.9333 1251.92 97.408 1255.51 99.2C1259.09 100.992 1263.7 102.016 1269.33 102.272V59.648ZM1284.43 102.272C1290.15 102.016 1294.8 100.992 1298.39 99.2C1301.97 97.3227 1304.57 94.8053 1306.19 91.648C1307.9 88.4907 1308.75 84.7787 1308.75 80.512C1308.75 76.5013 1307.99 73.0027 1306.45 70.016C1305 66.944 1302.48 64.512 1298.9 62.72C1295.31 60.928 1290.49 59.904 1284.43 59.648V102.272Z" fill="url(#paint3_linear_601_4374)"/>
<path d="M1345.77 134.016L1379.43 32.256H1394.54L1360.87 134.016H1345.77Z" fill="url(#paint4_linear_601_4374)"/>
<path d="M1430.61 128V38.016H1447.76V128H1430.61ZM1412.94 53.12V38.016H1446.48V53.12H1412.94ZM1507.82 49.152C1503.63 49.152 1499.92 49.92 1496.68 51.456C1493.44 52.992 1490.66 55.2107 1488.36 58.112C1486.14 61.0133 1484.43 64.512 1483.24 68.608C1482.13 72.704 1481.58 77.312 1481.58 82.432C1481.58 89.344 1482.51 95.2747 1484.39 100.224C1486.27 105.088 1489.13 108.843 1492.97 111.488C1496.89 114.133 1501.8 115.456 1507.69 115.456C1511.61 115.456 1515.37 115.072 1518.95 114.304C1522.62 113.451 1526.46 112.341 1530.47 110.976V124.928C1526.72 126.464 1522.92 127.573 1519.08 128.256C1515.33 128.939 1510.97 129.28 1506.02 129.28C1496.64 129.28 1488.87 127.36 1482.73 123.52C1476.58 119.595 1472.02 114.133 1469.03 107.136C1466.05 100.053 1464.55 91.776 1464.55 82.304C1464.55 75.392 1465.49 69.0773 1467.37 63.36C1469.33 57.6427 1472.1 52.6933 1475.69 48.512C1479.36 44.3307 1483.88 41.088 1489.26 38.784C1494.63 36.48 1500.82 35.328 1507.82 35.328C1512.42 35.328 1516.95 35.8827 1521.38 36.992C1525.91 38.016 1530.13 39.4667 1534.06 41.344L1528.42 54.784C1525.18 53.3333 1521.81 52.0533 1518.31 50.944C1514.9 49.7493 1511.4 49.152 1507.82 49.152Z" fill="url(#paint5_linear_601_4374)"/>
<defs>
<linearGradient id="paint0_linear_601_4374" x1="295.5" y1="21" x2="295.5" y2="155" gradientUnits="userSpaceOnUse">
<stop stop-color="#1956CD"/>
<stop offset="1" stop-color="#85A7EB"/>
</linearGradient>
<linearGradient id="paint1_linear_601_4374" x1="631" y1="21" x2="631" y2="155" gradientUnits="userSpaceOnUse">
<stop stop-color="#1956CD"/>
<stop offset="1" stop-color="#85A7EB"/>
</linearGradient>
<linearGradient id="paint2_linear_601_4374" x1="858.5" y1="21" x2="858.5" y2="155" gradientUnits="userSpaceOnUse">
<stop stop-color="#1956CD"/>
<stop offset="1" stop-color="#85A7EB"/>
</linearGradient>
<linearGradient id="paint3_linear_601_4374" x1="1237.5" y1="0" x2="1237.5" y2="161" gradientUnits="userSpaceOnUse">
<stop stop-color="#1956CD"/>
<stop offset="1" stop-color="#85A7EB"/>
</linearGradient>
<linearGradient id="paint4_linear_601_4374" x1="1370.5" y1="0" x2="1370.5" y2="161" gradientUnits="userSpaceOnUse">
<stop stop-color="#1956CD"/>
<stop offset="1" stop-color="#85A7EB"/>
</linearGradient>
<linearGradient id="paint5_linear_601_4374" x1="1410" y1="80.5" x2="1539" y2="80.5" gradientUnits="userSpaceOnUse">
<stop stop-color="#FAE715"/>
<stop offset="0.331742" stop-color="#FA6E32"/>
</linearGradient>
</defs>
</svg>
