<svg width="28" height="22" viewBox="0 0 28 22" fill="none" xmlns="http://www.w3.org/2000/svg">
<path d="M15.05 19.18L19.95 10.01L22.82 9.17001C22.54 9.82334 22.19 10.36 21.77 10.78C21.35 11.1533 20.86 11.34 20.3 11.34C19.0866 11.34 17.9666 10.85 16.94 9.87C15.9133 8.84334 15.4001 7.56 15.4001 6.02C15.4001 4.34 15.96 2.91667 17.08 1.75C18.2466 0.583334 19.6466 0 21.28 0C22.82 0 24.1733 0.583334 25.34 1.75C26.5066 2.91667 27.09 4.34 27.09 6.02C27.09 6.67334 26.95 7.46667 26.67 8.4C26.4366 9.28667 25.9466 10.43 25.2 11.83L19.74 21.77L15.05 19.18ZM0 19.18L4.9 10.01L7.84 9.17001C7.51333 9.82334 7.14 10.36 6.72 10.78C6.3 11.1533 5.81 11.34 5.25 11.34C4.03667 11.34 2.91667 10.85 1.89 9.87C0.91 8.84334 0.42 7.56 0.42 6.02C0.42 4.34 0.98 2.91667 2.1 1.75C3.22 0.583334 4.59667 0 6.23 0C7.81667 0 9.19333 0.583334 10.3601 1.75C11.5267 2.91667 12.1101 4.34 12.1101 6.02C12.1101 6.67334 11.9701 7.46667 11.6901 8.4C11.4101 9.28667 10.8967 10.43 10.1501 11.83L4.76 21.77L0 19.18Z" fill="#010101"/>
</svg>
