<svg width="20" height="17" viewBox="0 0 20 17" fill="none" xmlns="http://www.w3.org/2000/svg">
<path d="M1.22617 7.40354C1.22617 7.40354 10.0717 3.67172 13.1395 2.35766C14.3155 1.83208 18.3036 0.150066 18.3036 0.150066C18.3036 0.150066 20.1443 -0.585749 19.9909 1.2013C19.9398 1.93719 19.5307 4.51265 19.1217 7.29842C18.5081 11.2405 17.8434 15.5505 17.8434 15.5505C17.8434 15.5505 17.7412 16.7595 16.872 16.9697C16.0028 17.18 14.5711 16.2339 14.3155 16.0236C14.1109 15.866 10.4807 13.5007 9.15133 12.3443C8.7934 12.029 8.38439 11.3983 9.20242 10.6624C11.0431 8.92784 13.2417 6.77284 14.5711 5.40625C15.1847 4.77548 15.7982 3.30378 13.2417 5.09083C9.61151 7.66637 6.0324 10.0842 6.0324 10.0842C6.0324 10.0842 5.21429 10.6098 3.68041 10.1367C2.14645 9.66373 0.356899 9.03295 0.356899 9.03295C0.356899 9.03295 -0.870153 8.24454 1.22617 7.40354Z" fill="white"/>
</svg>
