<svg width="302" height="62" viewBox="0 0 302 62" fill="none" xmlns="http://www.w3.org/2000/svg">
<path d="M6.864 13.456C7.248 13.072 7.728 12.88 8.304 12.88C8.72 12.88 9.056 13.008 9.312 13.264C9.568 13.52 9.696 14 9.696 14.704C9.696 15.536 9.456 17.696 8.976 21.184C8.592 23.968 8.4 25.712 8.4 26.416C8.4 26.704 8.656 26.848 9.168 26.848C9.488 26.848 9.744 26.832 9.936 26.8C10.224 26.768 10.928 26.72 12.048 26.656C13.168 26.56 13.984 26.496 14.496 26.464C18.368 26.112 20.544 25.744 21.024 25.36C21.312 25.072 22.24 23.296 23.808 20.032C25.408 16.704 26.368 14.88 26.688 14.56C27.008 14.24 27.408 14.08 27.888 14.08C28.368 14.08 28.8 14.224 29.184 14.512C29.568 14.8 29.76 15.136 29.76 15.52C29.76 15.552 29.744 15.6 29.712 15.664C29.712 15.728 29.712 15.776 29.712 15.808C29.616 16.16 28.224 19.712 25.536 26.464C22.848 33.184 21.232 37.152 20.688 38.368C19.344 41.408 18.176 42.928 17.184 42.928C17.056 42.928 16.96 42.912 16.896 42.88C16.48 42.72 16.272 42.192 16.272 41.296C16.272 39.824 16.816 37.456 17.904 34.192C18.576 32.336 18.912 31.088 18.912 30.448C18.912 30.128 18.624 29.968 18.048 29.968C17.6 29.968 16.256 30.128 14.016 30.448C11.808 30.768 10.24 31.024 9.312 31.216C9.28 31.216 9.232 31.232 9.168 31.264C8.528 31.392 8.112 31.632 7.92 31.984C7.664 32.528 7.28 34.88 6.768 39.04L6.72 39.28C6.304 42.48 6 44.56 5.808 45.52C5.616 46.48 5.344 47.104 4.992 47.392C4.608 47.744 4.256 47.92 3.936 47.92C3.648 47.92 3.344 47.76 3.024 47.44L2.352 46.768L2.544 43.6C2.704 40.688 3.152 36.208 3.888 30.16C4.624 24.08 5.28 19.456 5.856 16.288C6.112 14.816 6.448 13.872 6.864 13.456ZM50.2054 28.192C50.2054 27.904 50.1414 27.76 50.0134 27.76C49.8854 27.76 49.1494 28.4 47.8054 29.68L45.7414 31.6L47.4214 31.456C48.3814 31.392 49.0694 31.264 49.4854 31.072C49.6454 31.008 49.8054 30.672 49.9654 30.064C50.1254 29.424 50.2054 28.8 50.2054 28.192ZM49.3414 24.112C49.4694 24.048 49.7254 24.016 50.1094 24.016C51.1974 24.016 51.9814 24.224 52.4614 24.64C53.1334 25.248 53.4694 26.32 53.4694 27.856C53.4694 28.304 53.4534 28.656 53.4214 28.912L53.2294 30.736H55.8694C57.3734 30.736 58.3814 30.8 58.8934 30.928C59.4374 31.024 59.7574 31.248 59.8534 31.6C59.8854 31.664 59.9014 31.76 59.9014 31.888C59.9014 32.176 59.6614 32.416 59.1814 32.608C58.7014 32.768 57.7734 32.976 56.3974 33.232C55.9174 33.296 55.4054 33.376 54.8614 33.472C54.3494 33.568 53.9014 33.664 53.5174 33.76C53.1334 33.824 52.9254 33.856 52.8934 33.856C52.5094 33.952 52.0774 34.816 51.5974 36.448C51.1174 37.92 50.7654 38.88 50.5414 39.328C50.3174 39.744 50.0134 39.952 49.6294 39.952C49.2454 39.952 48.9734 39.856 48.8134 39.664C48.6534 39.44 48.5734 39.04 48.5734 38.464C48.5734 38.272 48.6054 37.728 48.6694 36.832C48.7334 35.744 48.7654 35.168 48.7654 35.104C48.7654 34.72 48.7014 34.528 48.5734 34.528C48.5414 34.528 48.5094 34.544 48.4774 34.576C48.4454 34.576 48.4134 34.576 48.3814 34.576C47.4854 34.768 46.5894 34.912 45.6934 35.008C44.0614 35.264 42.9574 35.6 42.3814 36.016C41.8374 36.432 40.7974 37.648 39.2614 39.664C38.2694 41.008 37.5334 41.904 37.0534 42.352C36.6054 42.8 36.1894 43.024 35.8054 43.024C35.7734 43.024 35.7094 43.024 35.6134 43.024C35.5494 42.992 35.5014 42.976 35.4694 42.976C34.9254 42.816 34.6534 42.416 34.6534 41.776C34.6534 40.848 35.1334 39.632 36.0934 38.128L37.0534 36.496C37.0534 36.4 36.7494 36.352 36.1414 36.352C35.6614 36.352 35.2454 36.256 34.8934 36.064C34.5734 35.84 34.4134 35.6 34.4134 35.344C34.4134 35.088 34.5894 34.864 34.9414 34.672C35.2934 34.448 36.1254 34.096 37.4374 33.616L39.8854 32.704L42.6694 29.632C44.3654 27.776 45.6614 26.48 46.5574 25.744C47.4534 24.976 48.3814 24.432 49.3414 24.112ZM90.762 11.104C91.146 11.072 91.69 11.056 92.394 11.056C94.762 11.056 96.922 11.536 98.874 12.496C101.338 13.712 102.57 15.072 102.57 16.576C102.57 17.184 102.378 17.776 101.994 18.352C101.418 19.248 100.826 19.696 100.218 19.696C100.122 19.696 100.042 19.68 99.978 19.648C99.786 19.584 99.466 19.152 99.018 18.352C98.314 16.944 97.514 15.984 96.618 15.472C95.722 14.96 94.426 14.704 92.73 14.704C89.306 14.704 85.93 15.376 82.602 16.72C79.306 18.064 76.33 19.984 73.674 22.48C71.658 24.336 70.298 26.304 69.594 28.384C69.21 29.536 69.018 30.496 69.018 31.264C69.018 32.064 69.242 32.784 69.69 33.424C70.138 34.032 70.538 34.48 70.89 34.768C71.242 35.024 71.834 35.344 72.666 35.728C74.33 36.464 76.186 36.832 78.234 36.832C79.706 36.832 81.162 36.704 82.602 36.448C87.466 35.648 92.762 34.048 98.49 31.648C100.506 30.848 101.978 30.448 102.906 30.448C103.994 30.448 104.538 30.88 104.538 31.744C104.538 32.224 104.25 32.768 103.674 33.376C103.13 33.984 102.426 34.496 101.562 34.912C97.882 36.768 93.978 38.24 89.85 39.328C85.754 40.384 81.994 40.912 78.57 40.912C77.866 40.912 77.338 40.896 76.986 40.864C72.954 40.64 69.978 39.968 68.058 38.848C66.17 37.696 65.018 35.872 64.602 33.376C64.506 32.768 64.458 32.128 64.458 31.456C64.458 26.24 68.122 21.312 75.45 16.672C77.658 15.264 80.218 14.032 83.13 12.976C86.074 11.92 88.618 11.296 90.762 11.104ZM120.94 27.424C120.492 27.2 119.948 27.088 119.308 27.088C118.316 27.088 117.308 27.392 116.284 28C115.26 28.576 114.444 29.36 113.836 30.352C113.132 31.472 112.78 32.656 112.78 33.904C112.78 34.128 112.796 34.288 112.828 34.384C113.084 35.792 113.66 36.688 114.556 37.072C114.972 37.264 115.276 37.36 115.468 37.36C115.596 37.36 115.98 37.28 116.62 37.12C118.028 36.704 119.196 36 120.124 35.008C120.668 34.368 121.164 33.504 121.612 32.416C122.092 31.296 122.332 30.4 122.332 29.728C122.332 29.28 122.188 28.832 121.9 28.384C121.644 27.904 121.324 27.584 120.94 27.424ZM116.86 23.104C117.308 22.944 118.204 22.864 119.548 22.864C122.684 22.96 124.684 24.192 125.548 26.56C125.836 27.328 125.98 28.112 125.98 28.912C125.98 30.384 125.532 31.968 124.636 33.664C124.092 34.688 123.644 35.456 123.292 35.968C122.94 36.448 122.364 37.088 121.564 37.888C120.604 38.848 119.548 39.616 118.396 40.192C116.796 40.992 115.372 41.392 114.124 41.392C112.492 41.392 111.228 40.704 110.332 39.328C109.468 38.08 109.036 36.32 109.036 34.048C109.036 31.392 109.724 29.104 111.1 27.184C112.476 25.264 114.396 23.904 116.86 23.104ZM150.378 34.672L151.626 34.096H149.994C148.394 34.128 146.202 34.32 143.418 34.672C140.666 34.992 138.906 35.296 138.138 35.584C137.786 35.712 137.434 35.984 137.082 36.4C136.762 36.816 136.602 37.2 136.602 37.552C136.602 37.712 136.842 37.792 137.322 37.792C138.154 37.792 139.546 37.584 141.498 37.168C145.626 36.304 148.586 35.472 150.378 34.672ZM145.482 25.312C148.97 25.088 150.794 24.976 150.954 24.976C151.466 24.976 152.33 25.088 153.546 25.312C154.506 25.504 155.162 25.696 155.514 25.888C155.866 26.08 156.042 26.336 156.042 26.656C156.042 27.104 155.77 27.392 155.226 27.52C154.682 27.616 153.034 27.808 150.282 28.096C143.37 28.8 139.706 29.344 139.29 29.728C139.098 29.856 138.906 30.144 138.714 30.592C138.522 31.008 138.426 31.328 138.426 31.552C138.426 31.616 138.442 31.664 138.474 31.696C138.538 31.728 138.618 31.744 138.714 31.744C138.938 31.744 139.818 31.648 141.354 31.456C143.146 31.232 145.61 31.12 148.746 31.12C150.858 31.12 152.202 31.152 152.778 31.216C153.386 31.28 153.898 31.424 154.314 31.648C154.89 32 155.29 32.4 155.514 32.848C155.642 33.104 155.706 33.312 155.706 33.472C155.706 33.696 155.594 34.032 155.37 34.48C155.05 35.152 154.106 35.872 152.538 36.64C148.282 38.784 143.466 40.192 138.09 40.864C137.194 40.96 136.426 41.008 135.786 41.008C134.602 41.008 133.722 40.816 133.146 40.432C132.762 40.208 132.57 39.856 132.57 39.376C132.57 39.312 132.57 39.216 132.57 39.088C132.602 38.96 132.618 38.848 132.618 38.752C132.65 38.528 132.666 38.272 132.666 37.984C132.666 37.728 132.618 37.568 132.522 37.504C132.426 37.44 132.234 37.392 131.946 37.36C131.018 37.232 130.554 36.8 130.554 36.064C130.586 35.616 130.73 35.248 130.986 34.96C131.242 34.64 131.786 34.224 132.618 33.712C133.226 33.328 133.642 33.008 133.866 32.752C134.09 32.496 134.282 32.128 134.442 31.648C134.634 31.104 134.73 30.72 134.73 30.496C134.73 30.368 134.65 30.112 134.49 29.728C134.234 29.216 134.106 28.704 134.106 28.192C134.106 27.84 134.17 27.6 134.298 27.472C134.426 27.312 134.73 27.136 135.21 26.944C136.778 26.24 140.202 25.696 145.482 25.312ZM177.64 26.656C176.84 26.496 175.784 26.416 174.472 26.416C173 26.416 171.8 26.512 170.872 26.704C170.104 26.896 169.128 27.264 167.944 27.808L166.456 28.528L169.288 28.624H169.768C172.936 28.624 175.624 28.288 177.832 27.616C178.056 27.552 178.248 27.488 178.408 27.424C178.568 27.328 178.696 27.248 178.792 27.184C178.888 27.12 178.92 27.072 178.888 27.04C178.856 26.976 178.44 26.848 177.64 26.656ZM171.976 22.768C173.384 22.64 174.104 22.576 174.136 22.576C174.552 22.576 175.416 22.672 176.728 22.864C180.28 23.344 182.328 24.416 182.872 26.08C182.968 26.368 183.016 26.672 183.016 26.992C183.016 28.176 182.232 29.2 180.664 30.064C179.128 30.928 176.984 31.52 174.232 31.84C173.176 31.968 171.256 32.032 168.472 32.032C166.456 32.032 165.24 31.984 164.824 31.888C164.664 31.856 164.536 31.856 164.44 31.888C164.376 31.888 164.328 31.92 164.296 31.984C164.296 32.048 164.296 32.176 164.296 32.368C164.296 32.784 164.44 33.28 164.728 33.856C165.336 35.104 166.664 36.08 168.712 36.784C170.792 37.488 173.32 37.84 176.296 37.84H177.112H178.024C179.144 37.84 179.832 37.968 180.088 38.224C180.344 38.512 180.392 38.848 180.232 39.232C179.944 40.032 178.312 40.576 175.336 40.864C174.312 40.928 173.56 40.96 173.08 40.96C170.232 40.96 167.736 40.464 165.592 39.472C163.48 38.48 161.992 37.104 161.128 35.344C160.744 34.576 160.552 33.472 160.552 32.032C160.552 30.624 160.744 29.536 161.128 28.768C162.056 26.88 163.656 25.408 165.928 24.352C167.88 23.456 169.896 22.928 171.976 22.768ZM189.087 27.28C190.911 24.176 193.935 22.624 198.159 22.624C199.183 22.624 200.271 22.72 201.423 22.912C202.639 23.104 203.439 23.392 203.823 23.776C204.143 24.096 204.303 24.448 204.303 24.832C204.303 25.216 204.175 25.552 203.919 25.84C203.663 26.128 203.375 26.272 203.055 26.272C202.735 26.272 202.463 26.256 202.239 26.224C201.599 26.16 200.687 26.128 199.503 26.128C197.615 26.128 196.351 26.288 195.711 26.608C195.103 26.896 194.479 27.328 193.839 27.904C193.199 28.448 192.751 28.976 192.495 29.488C192.047 30.384 191.823 31.504 191.823 32.848C191.823 33.84 191.967 34.624 192.255 35.2C192.447 35.552 192.911 35.888 193.647 36.208C194.351 36.56 195.215 36.736 196.239 36.736C198.543 36.736 200.543 35.984 202.239 34.48C202.815 33.968 203.391 33.712 203.967 33.712C204.479 33.712 204.927 33.904 205.311 34.288C205.663 34.64 205.839 34.928 205.839 35.152C205.839 35.856 205.215 36.768 203.967 37.888C202.719 38.976 201.391 39.792 199.983 40.336C198.511 40.912 197.135 41.2 195.855 41.2C195.311 41.2 194.751 41.152 194.175 41.056C192.095 40.736 190.559 40.08 189.567 39.088C188.863 38.416 188.367 37.696 188.079 36.928C187.791 36.16 187.631 35.104 187.599 33.76V32.992C187.599 30.816 188.095 28.912 189.087 27.28Z" fill="#0070FF"/>
<circle cx="4" cy="4" r="4" transform="matrix(1 0 0 -1 211 46)" fill="#FF4E1D"/>
<path d="M246.488 13.504C245.4 13.28 243.352 13.168 240.344 13.168C234.68 13.168 231.608 13.408 231.128 13.888C231.096 13.92 231.08 14.16 231.08 14.608C231.08 15.44 231.128 16.496 231.224 17.776C231.352 19.056 231.48 19.76 231.608 19.888C231.64 19.92 231.752 19.936 231.944 19.936C232.712 19.936 234.328 19.728 236.792 19.312C239.256 18.896 241.368 18.464 243.128 18.016C245.688 17.376 247.432 16.848 248.36 16.432C249.32 16.016 249.8 15.584 249.8 15.136C249.8 14.752 249.56 14.448 249.08 14.224C248.632 13.968 247.768 13.728 246.488 13.504ZM235.016 9.952C235.176 9.92 235.704 9.904 236.6 9.904C241.304 9.904 244.696 10.048 246.776 10.336C251.672 11.104 254.12 12.656 254.12 14.992C254.12 15.312 254.072 15.664 253.976 16.048C253.784 16.752 253.272 17.488 252.44 18.256C251.64 19.024 250.696 19.664 249.608 20.176C248.104 20.912 245.832 21.632 242.792 22.336C239.784 23.04 237.048 23.488 234.584 23.68C232.824 23.84 231.864 24.032 231.704 24.256C231.448 24.736 231.256 27.424 231.128 32.32C231.064 35.2 230.92 37.264 230.696 38.512C230.472 39.76 230.104 40.64 229.592 41.152C229.176 41.568 228.744 41.68 228.296 41.488C227.784 41.328 227.384 40.96 227.096 40.384C226.808 39.776 226.648 36.912 226.616 31.792L226.568 24.112L225.416 23.728C224.68 23.472 224.152 23.232 223.832 23.008C223.544 22.752 223.4 22.432 223.4 22.048C223.4 21.696 223.544 21.44 223.832 21.28C224.12 21.088 224.664 20.928 225.464 20.8L226.616 20.656L226.808 18.592C226.904 17.44 226.952 16.352 226.952 15.328C226.952 14.72 226.92 14.368 226.856 14.272C226.792 14.176 226.536 14.128 226.088 14.128C225.544 14.128 225.048 13.952 224.6 13.6C224.152 13.248 223.928 12.848 223.928 12.4C223.928 11.984 223.96 11.696 224.024 11.536C224.12 11.344 224.408 11.168 224.888 11.008C225.4 10.816 226.04 10.688 226.808 10.624C227.576 10.56 228.792 10.464 230.456 10.336C232.792 10.176 234.312 10.048 235.016 9.952ZM275.539 28.912C275.539 24.976 275.475 22.976 275.347 22.912L275.299 22.864C275.267 22.864 275.235 22.864 275.203 22.864C274.659 22.864 273.443 23.36 271.555 24.352C269.667 25.344 268.227 26.24 267.235 27.04C265.251 28.704 263.923 30.336 263.251 31.936C262.995 32.48 262.867 33.184 262.867 34.048C262.867 36.288 263.619 37.984 265.123 39.136C266.083 39.904 267.411 40.576 269.107 41.152C270.835 41.696 272.387 41.968 273.763 41.968H275.203L275.347 38.368C275.475 35.744 275.539 32.592 275.539 28.912ZM293.395 24.832C291.219 22.88 287.939 21.792 283.555 21.568L280.579 21.424L280.291 22.144C280.163 22.432 280.051 24.224 279.955 27.52C279.859 30.816 279.811 33.84 279.811 36.592C279.811 38.8 279.843 40.032 279.907 40.288C279.971 40.704 280.067 40.96 280.195 41.056C280.323 41.152 280.579 41.2 280.963 41.2C282.243 41.2 284.419 40.432 287.491 38.896C288.643 38.32 289.475 37.84 289.987 37.456C290.531 37.072 291.331 36.352 292.387 35.296C294.467 33.28 295.507 31.248 295.507 29.2C295.507 27.6 294.803 26.144 293.395 24.832ZM277.315 13.84C277.475 13.52 277.779 13.392 278.227 13.456C278.675 13.52 279.043 13.84 279.331 14.416C279.651 14.992 279.811 15.68 279.811 16.48V17.632L283.411 17.776C287.315 17.936 290.371 18.576 292.579 19.696C296.547 21.68 298.675 24.464 298.963 28.048C298.963 28.144 298.963 28.288 298.963 28.48C298.995 28.672 299.011 28.816 299.011 28.912C299.011 31.344 298.035 33.76 296.083 36.16C292.915 40.128 288.179 42.976 281.875 44.704C280.659 45.056 280.003 45.264 279.907 45.328C279.843 45.392 279.731 46.496 279.571 48.64C279.347 51.712 279.027 53.632 278.611 54.4C278.323 55.008 277.763 55.312 276.931 55.312C276.291 55.312 275.827 55.072 275.539 54.592C275.379 54.304 275.235 52.752 275.107 49.936C275.011 47.152 274.867 45.76 274.675 45.76C274.579 45.76 273.763 45.664 272.227 45.472C265.699 44.672 261.443 42.272 259.459 38.272C258.979 37.344 258.739 36.352 258.739 35.296V34.528C258.771 33.184 258.931 32.048 259.219 31.12C259.539 30.192 260.131 29.072 260.995 27.76C262.243 25.904 264.003 24.224 266.275 22.72C268.579 21.184 271.171 19.984 274.051 19.12L276.211 18.448L276.643 16.384C276.931 14.944 277.155 14.096 277.315 13.84Z" fill="#0070FF"/>
</svg>
