<svg width="18" height="18" viewBox="0 0 18 18" fill="none" xmlns="http://www.w3.org/2000/svg">
<g clip-path="url(#clip0_267_3136)">
<path d="M14.7168 7.79655L13.8935 5.8086L15 4.5L13.5 3L12.1985 4.11222L10.1683 3.2773L9.7015 1.5H8.23573L7.76181 3.30084L5.77831 4.13697L4.5 3L3 4.5L4.09003 5.84164L3.27938 7.83475L1.5 8.25V9.75L3.30084 10.2416L4.13681 12.2248L3 13.5L4.5 15L5.84337 13.9052L7.79776 14.7092L8.25 16.5H9.75L10.2034 14.7099L12.1913 13.8867C12.5227 14.1235 13.5 15 13.5 15L15 13.5L13.8869 12.1871L14.7104 10.1985L16.4999 9.73289L16.5 8.25L14.7168 7.79655Z" fill="#2E6CE6" stroke="#2E6CE6" stroke-width="2" stroke-linecap="round" stroke-linejoin="round"/>
<path d="M9 11.25C10.2426 11.25 11.25 10.2426 11.25 9C11.25 7.75736 10.2426 6.75 9 6.75C7.75736 6.75 6.75 7.75736 6.75 9C6.75 10.2426 7.75736 11.25 9 11.25Z" fill="#FEFAEF" stroke="#FEFAEF" stroke-width="2" stroke-linecap="round" stroke-linejoin="round"/>
</g>
<defs>
<clipPath id="clip0_267_3136">
<rect width="18" height="18" fill="white"/>
</clipPath>
</defs>
</svg>
