<?xml version="1.0" encoding="UTF-8" standalone="no"?>
<svg
   width="121.12012"
   height="93.951996"
   viewBox="0 0 121.12012 93.951996"
   fill="none"
   version="1.1"
   id="svg48"
   xmlns="http://www.w3.org/2000/svg"
   xmlns:svg="http://www.w3.org/2000/svg">
  <path
     d="M 17.670059,92.672001 V 2.6880009 h 17.15 V 92.672001 Z M 5.859375e-5,17.792001 V 2.6880009 H 33.540059 V 17.792001 Z M 94.880059,13.824001 c -4.19,0 -7.9,0.768 -11.14,2.304 -3.24,1.536 -6.02,3.7547 -8.32,6.656 -2.22,2.9013 -3.93,6.4 -5.12,10.496 -1.11,4.096 -1.66,8.704 -1.66,13.824 0,6.912 0.93,12.8427 2.81,17.792 1.88,4.864 4.74,8.619 8.58,11.264 3.92,2.645 8.83,3.968 14.72,3.968 3.92,0 7.680001,-0.384 11.260001,-1.152 3.67,-0.853 7.51,-1.963 11.52,-3.328 v 13.952 c -3.75,1.536 -7.55,2.645 -11.39,3.328 -3.75,0.683 -8.110001,1.024 -13.060001,1.024 -9.38,0 -17.15,-1.92 -23.29,-5.76 -6.15,-3.925 -10.71,-9.387 -13.7,-16.384 -2.98,-7.083 -4.48,-15.36 -4.48,-24.832 0,-6.912 0.94,-13.2267 2.82,-18.944 1.96,-5.7173 4.73,-10.6667 8.32,-14.848 3.67,-4.1813001 8.19,-7.4240001 13.57,-9.7280001 5.37,-2.304 11.56,-3.45600001499024 18.56,-3.45600001499024 4.6,0 9.130001,0.55470000499024 13.560001,1.66400001499024 4.53,1.024 8.75,2.4747 12.68,4.352 l -5.64,13.4400001 c -3.24,-1.4507 -6.61,-2.7307 -10.11,-3.84 -3.41,-1.1947 -6.910001,-1.792 -10.490001,-1.792 z"
     fill="url(#paint5_linear_601_4374)"
     id="path14"
     style="fill:url(#paint5_linear_601_4374)" />
  <defs
     id="defs46">
    <linearGradient
       id="paint5_linear_601_4374"
       x1="1410"
       y1="80.5"
       x2="1539"
       y2="80.5"
       gradientUnits="userSpaceOnUse"
       gradientTransform="translate(-1412.9399,-35.327999)">
      <stop
         stop-color="#FAE715"
         id="stop41" />
      <stop
         offset="0.331742"
         stop-color="#FA6E32"
         id="stop43" />
    </linearGradient>
  </defs>
</svg>
